<?xml version="1.0" standalone="no"?>
<!DOCTYPE svg PUBLIC "-//W3C//DTD SVG 20010904//EN"
 "http://www.w3.org/TR/2001/REC-SVG-20010904/DTD/svg10.dtd">
<svg version="1.0" xmlns="http://www.w3.org/2000/svg"
 width="768.000000pt" height="768.000000pt" viewBox="0 0 768.000000 768.000000"
 preserveAspectRatio="xMidYMid meet">
<metadata>
Created by potrace 1.16, written by Peter Selinger 2001-2019
</metadata>
<g transform="translate(0.000000,768.000000) scale(0.100000,-0.100000)"
fill="#000000" stroke="none">
<path d="M3780 6334 c-7 -8 -27 -53 -44 -101 -30 -85 -32 -87 -70 -95 -93 -19
-275 -154 -307 -228 l-13 -28 -360 -4 c-360 -4 -361 -4 -439 -31 -98 -34 -148
-66 -214 -135 -223 -236 -180 -597 91 -774 116 -75 137 -78 577 -78 l390 0 -1
-652 c-1 -631 -1 -655 19 -719 70 -223 290 -379 536 -379 80 0 148 16 230 54
76 35 201 159 243 241 65 130 63 105 62 813 l-1 642 378 0 c219 0 397 5 422
11 137 31 279 135 340 248 132 248 51 537 -191 684 -113 68 -175 77 -568 77
l-305 0 -14 33 c-20 43 -114 136 -176 173 -27 16 -79 38 -115 50 -54 18 -65
26 -73 50 -5 16 -23 59 -39 96 l-31 68 -158 -1 c-126 0 -160 -3 -169 -15z
m132 -299 c5 -5 -6 -94 -18 -144 l-5 -24 -117 6 c-123 6 -222 23 -222 37 0 18
97 75 170 102 68 24 177 38 192 23z m293 -26 c33 -10 85 -35 115 -56 l55 -38
-60 -5 c-33 -3 -75 -14 -93 -23 -25 -14 -51 -17 -115 -15 l-82 3 4 75 c2 41 5
79 8 83 7 11 94 -1 168 -24z m-608 -244 c30 -34 29 -59 -4 -84 -47 -38 -73
-38 -105 -2 -15 17 -28 39 -28 49 0 28 -11 34 -32 15 -20 -18 -24 -75 -8 -117
13 -36 67 -66 117 -66 50 0 96 34 114 85 l12 33 236 4 c130 2 243 7 252 12 14
6 20 -1 29 -31 28 -87 107 -124 197 -93 38 14 76 78 67 114 -12 50 -64 72 -64
27 0 -21 -26 -46 -56 -55 -27 -8 -84 37 -84 66 0 22 18 60 34 70 18 12 111 9
128 -4 8 -7 30 -34 47 -60 18 -27 37 -48 44 -49 7 0 50 -5 97 -10 47 -5 193
-13 325 -19 132 -5 267 -14 300 -20 154 -29 234 -131 222 -284 -6 -82 -30
-132 -89 -181 -78 -66 -62 -65 -605 -65 l-493 0 -2 -762 -3 -763 -30 -55 c-39
-70 -117 -134 -192 -156 -151 -44 -322 32 -384 169 l-24 52 -5 755 -5 755
-485 1 -485 1 -51 26 c-215 110 -216 380 -1 485 l69 34 251 10 c283 10 444 21
449 28 2 3 11 17 20 31 9 14 38 41 65 58 41 28 55 32 93 28 32 -4 51 -12 67
-32z"/>
<path d="M2163 5022 c22 -111 181 -380 314 -534 230 -265 543 -591 686 -715
59 -51 112 -93 117 -93 6 0 10 39 10 88 l0 88 -41 39 c-73 70 -554 594 -726
791 -39 44 -90 98 -114 119 -24 22 -91 86 -148 144 -95 96 -104 102 -98 73z"/>
<path d="M5681 5032 c-2 -18 -144 -164 -190 -197 -22 -15 -93 -88 -157 -163
-126 -146 -274 -309 -391 -432 -39 -41 -93 -100 -119 -130 -104 -120 -218
-240 -228 -240 -7 0 -11 -33 -11 -95 0 -52 3 -95 7 -95 3 0 30 19 60 41 84 66
268 255 597 614 244 266 360 431 421 601 12 34 20 72 17 85 -2 13 -5 18 -6 11z"/>
<path d="M5230 4768 c-14 -6 -62 -11 -108 -13 l-83 -2 -107 -104 c-59 -58
-160 -160 -225 -227 l-117 -122 -2 -125 c-1 -69 0 -126 3 -128 7 -6 654 684
670 715 11 20 5 21 -31 6z"/>
<path d="M2632 4730 c18 -24 211 -234 414 -451 51 -54 123 -137 160 -185 l69
-86 3 147 3 147 -223 223 -223 224 -111 3 -112 3 20 -25z"/>
<path d="M2848 2672 l-108 -3 0 -94 0 -95 128 0 127 0 -3 -320 -3 -320 100 0
101 0 0 320 0 320 125 0 125 0 0 99 0 100 -242 -2 c-134 -1 -291 -3 -350 -5z"/>
<path d="M3825 2668 c-26 -75 -91 -241 -123 -313 -107 -243 -173 -388 -201
-443 -17 -34 -31 -64 -31 -67 0 -3 49 -5 108 -4 l109 2 39 86 40 86 163 -3
163 -3 39 -84 39 -85 115 0 c63 0 115 3 115 8 0 4 -7 17 -15 30 -65 91 -223
424 -353 740 l-25 62 -89 0 c-62 0 -90 -4 -93 -12z m178 -445 c9 -18 17 -33
17 -35 0 -4 -174 3 -178 7 -4 4 64 190 75 208 3 5 20 -26 38 -69 17 -44 39
-93 48 -111z"/>
<path d="M4597 2671 l-99 -6 24 -35 c83 -120 170 -235 225 -297 46 -52 62 -77
56 -87 -4 -8 -40 -50 -78 -93 -39 -43 -85 -97 -103 -120 -32 -41 -112 -172
-112 -184 0 -3 49 -6 110 -6 l109 -1 53 80 c29 43 67 102 84 129 l32 49 27
-47 c15 -27 34 -55 42 -64 8 -9 29 -45 48 -80 l34 -64 125 -1 c70 0 126 2 126
6 0 3 -20 27 -44 55 -24 27 -59 74 -77 104 -18 31 -54 90 -80 131 -82 128 -81
118 -17 213 31 45 66 102 78 127 13 25 45 78 73 118 27 40 48 74 46 76 -6 5
-237 -8 -241 -14 -2 -3 -26 -54 -53 -113 -27 -60 -52 -110 -56 -113 -5 -2 -27
23 -50 57 -81 119 -142 189 -164 187 -11 -1 -64 -4 -118 -7z"/>
<path d="M5528 2303 c-3 -205 -3 -393 0 -418 l5 -45 98 0 99 0 0 419 0 419
-98 -2 -99 -1 -5 -372z"/>
</g>
</svg>
